<?xml version="1.0" encoding="UTF-8" standalone="no"?>
<svg
   version="1.0"
   width="583.67456pt"
   height="583.67462pt"
   viewBox="0 0 583.67456 583.67462"
   preserveAspectRatio="xMidYMid"
   id="svg3"
   sodipodi:docname="logo light.svg"
   inkscape:version="1.4 (e7c3feb100, 2024-10-09)"
   xmlns:inkscape="http://www.inkscape.org/namespaces/inkscape"
   xmlns:sodipodi="http://sodipodi.sourceforge.net/DTD/sodipodi-0.dtd"
   xmlns="http://www.w3.org/2000/svg"
   xmlns:svg="http://www.w3.org/2000/svg">
  <defs
     id="defs3" />
  <sodipodi:namedview
     id="namedview3"
     pagecolor="#ffffff"
     bordercolor="#666666"
     borderopacity="1.0"
     inkscape:showpageshadow="2"
     inkscape:pageopacity="0.0"
     inkscape:pagecheckerboard="0"
     inkscape:deskcolor="#d1d1d1"
     inkscape:document-units="pt"
     inkscape:zoom="0.4901928"
     inkscape:cx="427.38286"
     inkscape:cy="530.40355"
     inkscape:window-width="1634"
     inkscape:window-height="1256"
     inkscape:window-x="1291"
     inkscape:window-y="530"
     inkscape:window-maximized="0"
     inkscape:current-layer="svg3" />
  <path
     d="M 0,291.29636 V 583.6746 h 289.13259 294.542 V 291.29636 0 H 289.13259 0 Z m 309.13259,-252 c 60.1,5.4 112.8,29.4 155.4,70.9 35.5,34.6 59.2,76.1 70.6,123.6 16.4,68.6 2.8,140.9 -37.6,199.3 -43,62.1 -110.2,102.1 -184,109.3 -14.9,1.5 -49.2,0.6 -62.9,-1.5 -39.2,-6.2 -77.2,-21.9 -108.5,-44.9 -35.6,-26.2 -61.6,-56.8 -80.6,-95.2 -31.9,-64.6 -33.6,-143.2 -4.5,-209.6 16.1,-36.8 43.7,-72.9 74.6,-97.4 50,-39.9 115.6,-60 177.5,-54.5 z"
     id="path1"
     style="fill:#4d6969;stroke:none;stroke-width:0.1;fill-opacity:1"
     sodipodi:nodetypes="cccccccccccccccccccc" />
  <path
     d="m 267.13259,57.39636 c -71.9,6.9 -134.2,44.6 -175.4,106.4 -3.7,5.5 -9.8,16.3 -13.6,24 -16,32.6 -22.6,59.3 -23.7,95.5 -1.2,40.2 6.1,75.1 23.2,109.8 46.5,94.5 147.5,146.8 250.5,129.6 71.4,-11.9 134.8,-58.3 169.6,-123.9 33.9,-63.9 35.2,-142.5 3.5,-208 -12.1,-25.1 -24.2,-42.3 -44.1,-62.8 -6.9,-7.1 -16.1,-15.9 -20.5,-19.4 -17.7,-14.3 -41.9,-28.3 -63.3,-36.7 -31.6,-12.4 -71.5,-17.8 -106.2,-14.5 z m 43.1,20.9 c 27.2,2.8 57.5,11.9 79.7,24.1 52.6,28.8 91.3,77.3 106.2,133.1 9.2,34.4 9.4,73.9 0.6,108.5 -18.2,71.8 -76.1,131.7 -147,152.3 -42.4,12.2 -86.5,11.5 -127.8,-2 -68.8,-22.6 -124.1,-82.2 -141.1,-152 -7.5,-30.7 -8,-65.1 -1.5,-96 8.3,-39.2 27.8,-74.9 57.3,-104.6 20,-20.2 35.8,-31.7 59.1,-43 24.3,-11.8 43.4,-16.9 76.9,-20.8 6.9,-0.7 28,-0.5 37.6,0.4 z"
     id="path2"
     style="fill:#4d6969;stroke:none;stroke-width:0.1;fill-opacity:1" />
  <path
     d="m 273.13259,134.89636 c -62,7.7 -111.5,46.9 -132.5,104.9 -6.4,17.7 -7.9,27.3 -7.9,51 0,23.7 1.3,32.5 8,51.6 18.3,52.6 64.2,92.2 119,102.9 55.6,10.8 113.5,-10 149.7,-53.8 22.8,-27.6 35,-59.2 36.4,-94.3 3.1,-76.4 -51.1,-145 -126.4,-160 -10.5,-2 -37.4,-3.4 -46.3,-2.3 z m 28.6,28.5 c 19.1,1.9 37.3,7.8 52.8,17.1 l 7.1,4.3 -6.5,0.7 c -3.6,0.4 -36.4,0.7 -73,0.6 h -66.4 l 2.9,-2.5 c 4.7,-3.9 24.2,-12.9 33.6,-15.7 9.6,-2.7 23.6,-4.9 35,-5.4 1.9,-0.1 8.5,0.3 14.5,0.9 z m 91.5,52.6 c 5.3,7.3 10.8,16.7 10.3,17.5 -0.6,0.9 -229.4,1.1 -229.4,0.3 0,-1.4 3.7,-7.7 8.8,-14.8 l 5.5,-7.7 h 100.7 100.7 z m 21.3,45 c 1.1,3.9 2.6,13.9 2.6,17.5 v 3.8 h -128 -128 v -3.8 c 0,-3.6 1.5,-13.6 2.6,-17.5 0.5,-1.6 7.3,-1.7 125.4,-1.7 118.1,0 124.9,0.1 125.4,1.7 z m 2.6,47 c 0,1.3 -2.7,13.5 -3.9,18.1 l -1.2,4.2 h -122.9 -122.8 l -1.1,-3.3 c -1.5,-4.7 -2.8,-10.6 -3.5,-15.5 l -0.6,-4.2 h 128 c 70.4,0 128,0.3 128,0.7 z m -17,47.9 c 0,0.9 -6,9.5 -11.3,16.1 l -5,6.3 h -94.7 -94.7 l -4,-4.8 c -5,-5.9 -12.3,-16.2 -12.3,-17.4 0,-0.4 50,-0.8 111,-0.8 61.1,0 111,0.3 111,0.6 z m -55,50.9 c -14.5,7.6 -38.9,13.5 -56,13.5 -15.6,0 -36.2,-4.5 -50.7,-11 -14.1,-6.4 -17.3,-6 51.2,-6 l 62,0.1 z"
     id="path3"
     style="fill:#4d6969;stroke:none;stroke-width:0.1;fill-opacity:1" />
  <circle
     id="path5"
     style="fill:#4d6969;stroke:#008080;stroke-width:0.75;fill-opacity:1"
     cx="370.00314"
     cy="354.85684"
     r="0.30636811" />
  <circle
     id="path6"
     style="fill:#4d6969;stroke:#008080;stroke-width:0.75;fill-opacity:1"
     cx="525.79395"
     cy="170.9371"
     r="0.30636811" />
  <circle
     id="path7"
     style="fill:#4d6969;stroke:#008080;stroke-width:0.75;fill-opacity:1"
     cx="523.63019"
     cy="99.53302"
     r="0.30636811" />
</svg>
